solid Utensil Holder_bigItems
facet normal -1.0 1.3818603502059323e-35 -2.744689704866181e-18
  outer loop
    vertex -0.08659572928254428 10.061149290244753 16.053536475067286
    vertex -0.08659572928254423 0.061149290244753816 5.009266748153425e-30
    vertex -0.08659572928254428 0.061149290244753816 16.053536475067286
  endloop
endfacet
facet normal -1.0 1.3818603502059323e-35 -2.744689704866181e-18
  outer loop
    vertex -0.08659572928254423 0.061149290244753816 5.009266748153425e-30
    vertex -0.08659572928254428 10.061149290244753 16.053536475067286
    vertex -0.08659572928254423 10.061149290244758 5.009266748153425e-30
  endloop
endfacet
facet normal 0.9999999999969502 2.0725267860813508e-06 -1.3432814600496145e-06
  outer loop
    vertex 49.913362820460996 10.061135079420959 24.57139415163068
    vertex 49.91340427071748 0.061149290244753816 39.99999999999999
    vertex 49.91340427088095 0.06113507987820032 24.571307973408175
  endloop
endfacet
facet normal 0.9999999999969502 2.0725267860813508e-06 -1.3432814600496145e-06
  outer loop
    vertex 49.91340427071748 0.061149290244753816 39.99999999999999
    vertex 49.913362820460996 10.061135079420959 24.57139415163068
    vertex 49.91340427071748 10.061149290244758 39.99999999999999
  endloop
endfacet
facet normal 4.3076126131660884e-07 -0.9999999999603555 -8.89401301032776e-06
  outer loop
    vertex 49.91340427071748 0.061149290244753816 5.009266748153425e-30
    vertex 32.01096894330716 0.061149290244753816 2.6853897573319926e-30
    vertex 32.413199004062086 0.06271262424614339 3.6151276651056032e-31
  endloop
endfacet
facet normal 4.3076126131660884e-07 -0.9999999999603555 -8.89401301032776e-06
  outer loop
    vertex 32.01096894330716 0.061149290244753816 2.6853897573319926e-30
    vertex 49.91340427071748 0.061149290244753816 5.009266748153425e-30
    vertex -0.08659572928254423 0.061149290244753816 5.009266748153425e-30
  endloop
endfacet
facet normal 4.3076126131660884e-07 -0.9999999999603555 -8.89401301032776e-06
  outer loop
    vertex -0.08659572928254423 0.061149290244753816 5.009266748153425e-30
    vertex 49.91340427071748 0.061149290244753816 5.009266748153425e-30
    vertex 48.33690901875279 0.061204308693260115 14.687407955744458
  endloop
endfacet
facet normal 4.3076126131660884e-07 -0.9999999999603555 -8.89401301032776e-06
  outer loop
    vertex 48.33690901875279 0.061204308693260115 14.687407955744458
    vertex 49.91340427071748 0.061149290244753816 5.009266748153425e-30
    vertex 49.663404270662326 0.06120521838433957 15.236860279545773
  endloop
endfacet
facet normal 4.3076126131660884e-07 -0.9999999999603555 -8.89401301032776e-06
  outer loop
    vertex 49.663404270662326 0.06120521838433957 15.236860279545773
    vertex 49.91340427071748 0.061149290244753816 5.009266748153425e-30
    vertex 49.9134042707879 0.06117693588864347 15.428692026695044
  endloop
endfacet
facet normal 4.3076126131660884e-07 -0.9999999999603555 -8.89401301032776e-06
  outer loop
    vertex -0.08659572928254423 0.061149290244753816 5.009266748153425e-30
    vertex 48.33690901875279 0.061204308693260115 14.687407955744458
    vertex 46.91340427071748 0.06119964958583724 14.500000000285699
  endloop
endfacet
facet normal 4.3076126131660884e-07 -0.9999999999603555 -8.89401301032776e-06
  outer loop
    vertex -0.08659572928254423 0.061149290244753816 5.009266748153425e-30
    vertex 46.91340427071748 0.06119964958583724 14.500000000285699
    vertex 32.41340427071747 0.061149290244753816 12.999999999999996
  endloop
endfacet
facet normal 4.3076126131660884e-07 -0.9999999999603555 -8.89401301032776e-06
  outer loop
    vertex -0.08659572928254423 0.061149290244753816 5.009266748153425e-30
    vertex 17.413404270717468 0.061149290244753816 12.999999999999996
    vertex -0.08659572928254428 0.061149290244753816 16.053536475067286
  endloop
endfacet
facet normal 4.3076126131660884e-07 -0.9999999999603555 -8.89401301032776e-06
  outer loop
    vertex 17.413404270717468 0.061149290244753816 12.999999999999996
    vertex -0.08659572928254423 0.061149290244753816 5.009266748153425e-30
    vertex 32.41340427071747 0.061149290244753816 12.999999999999996
  endloop
endfacet
facet normal 4.3076126131660884e-07 -0.9999999999603555 -8.89401301032776e-06
  outer loop
    vertex -0.08659572928254428 0.061149290244753816 16.053536475067286
    vertex 17.413404270717468 0.061149290244753816 12.999999999999996
    vertex 17.413404270717468 0.061149290244753816 39.99999999999999
  endloop
endfacet
facet normal 4.3076126131660884e-07 -0.9999999999603555 -8.89401301032776e-06
  outer loop
    vertex -0.08659572928254428 0.061149290244753816 16.053536475067286
    vertex 17.413404270717468 0.061149290244753816 39.99999999999999
    vertex -6.622129635215282 0.061149290244753816 16.46446609406726
  endloop
endfacet
facet normal 4.3076126131660884e-07 -0.9999999999603555 -8.89401301032776e-06
  outer loop
    vertex -6.622129635215282 0.061149290244753816 16.46446609406726
    vertex 17.413404270717468 0.061149290244753816 39.99999999999999
    vertex -0.08659572928254423 0.061149290244753816 23.946463524932714
  endloop
endfacet
facet normal 4.3076126131660884e-07 -0.9999999999603555 -8.89401301032776e-06
  outer loop
    vertex -6.622129635215282 0.061149290244753816 16.46446609406726
    vertex -0.08659572928254423 0.061149290244753816 23.946463524932714
    vertex -7.416722748204737 0.061149290244753816 17.499999999999996
  endloop
endfacet
facet normal 4.3076126131660884e-07 -0.9999999999603555 -8.89401301032776e-06
  outer loop
    vertex -7.416722748204737 0.061149290244753816 17.499999999999996
    vertex -0.08659572928254423 0.061149290244753816 23.946463524932714
    vertex -7.916224860727885 0.061149290244753816 18.70590477448739
  endloop
endfacet
facet normal 4.3076126131660884e-07 -0.9999999999603555 -8.89401301032776e-06
  outer loop
    vertex -7.916224860727885 0.061149290244753816 18.70590477448739
    vertex -0.08659572928254423 0.061149290244753816 23.946463524932714
    vertex -8.086595729282545 0.061149290244753816 19.999999999999996
  endloop
endfacet
facet normal 4.3076126131660884e-07 -0.9999999999603555 -8.89401301032776e-06
  outer loop
    vertex -8.086595729282545 0.061149290244753816 19.999999999999996
    vertex -0.08659572928254423 0.061149290244753816 23.946463524932714
    vertex -7.916224860727886 0.061149290244753816 21.2940952255126
  endloop
endfacet
facet normal 4.3076126131660884e-07 -0.9999999999603555 -8.89401301032776e-06
  outer loop
    vertex -7.916224860727886 0.061149290244753816 21.2940952255126
    vertex -0.08659572928254423 0.061149290244753816 23.946463524932714
    vertex -7.416722748204739 0.061149290244753816 22.499999999999996
  endloop
endfacet
facet normal 4.3076126131660884e-07 -0.9999999999603555 -8.89401301032776e-06
  outer loop
    vertex -7.416722748204739 0.061149290244753816 22.499999999999996
    vertex -0.08659572928254423 0.061149290244753816 23.946463524932714
    vertex -6.622129635215284 0.061149290244753816 23.53553390593273
  endloop
endfacet
facet normal 4.3076126131660884e-07 -0.9999999999603555 -8.89401301032776e-06
  outer loop
    vertex -0.08659572928254423 0.061149290244753816 23.946463524932714
    vertex 17.413404270717468 0.061149290244753816 39.99999999999999
    vertex -0.08659572928254423 0.061149290244753816 39.99999999999999
  endloop
endfacet
facet normal 4.3076126131660884e-07 -0.9999999999603555 -8.89401301032776e-06
  outer loop
    vertex -0.08659572928254423 0.061149290244753816 23.946463524932714
    vertex -5.586595729282547 0.061149290244753816 24.330127018922187
    vertex -6.622129635215284 0.061149290244753816 23.53553390593273
  endloop
endfacet
facet normal 4.3076126131660884e-07 -0.9999999999603555 -8.89401301032776e-06
  outer loop
    vertex -5.586595729282547 0.061149290244753816 24.330127018922187
    vertex -0.08659572928254423 0.061149290244753816 23.946463524932714
    vertex -0.5865957292825479 0.061149290244753816 24.330127018922195
  endloop
endfacet
facet normal 4.3076126131660884e-07 -0.9999999999603555 -8.89401301032776e-06
  outer loop
    vertex -5.586595729282547 0.061149290244753816 24.330127018922187
    vertex -0.5865957292825479 0.061149290244753816 24.330127018922195
    vertex -4.380690954795152 0.061149290244753816 24.829629131445337
  endloop
endfacet
facet normal 4.3076126131660884e-07 -0.9999999999603555 -8.89401301032776e-06
  outer loop
    vertex -4.380690954795152 0.061149290244753816 24.829629131445337
    vertex -0.5865957292825479 0.061149290244753816 24.330127018922195
    vertex -1.7925005037699429 0.061149290244753816 24.82962913144534
  endloop
endfacet
facet normal 4.3076126131660884e-07 -0.9999999999603555 -8.89401301032776e-06
  outer loop
    vertex -4.380690954795152 0.061149290244753816 24.829629131445337
    vertex -1.7925005037699429 0.061149290244753816 24.82962913144534
    vertex -3.0865957292825454 0.061149290244753816 24.999999999999996
  endloop
endfacet
facet normal 4.3076126131660884e-07 -0.9999999999603555 -8.89401301032776e-06
  outer loop
    vertex 49.91340427071748 0.061149290244753816 39.99999999999999
    vertex 49.66340427066232 0.061117993446947405 24.763139720679753
    vertex 49.91340427088095 0.06113507987820032 24.571307973408175
  endloop
endfacet
facet normal 4.3076126131660884e-07 -0.9999999999603555 -8.89401301032776e-06
  outer loop
    vertex 49.66340427066232 0.061117993446947405 24.763139720679753
    vertex 49.91340427071748 0.061149290244753816 39.99999999999999
    vertex 48.33690901875279 0.061107021916965355 25.31259204437228
  endloop
endfacet
facet normal 4.3076126131660884e-07 -0.9999999999603555 -8.89401301032776e-06
  outer loop
    vertex 48.33690901875279 0.061107021916965355 25.31259204437228
    vertex 49.91340427071748 0.061149290244753816 39.99999999999999
    vertex 46.91340427071748 0.061098930903670384 25.499999999714298
  endloop
endfacet
facet normal 4.3076126131660884e-07 -0.9999999999603555 -8.89401301032776e-06
  outer loop
    vertex 32.41340427071747 0.061149290244753816 12.999999999999996
    vertex 42.150264549998596 0.06115313854758531 17.24999999994753
    vertex 32.41340427071747 0.061149290244753816 39.99999999999999
  endloop
endfacet
facet normal 4.3076126131660884e-07 -0.9999999999603555 -8.89401301032776e-06
  outer loop
    vertex 42.150264549998596 0.06115313854758531 17.24999999994753
    vertex 32.41340427071747 0.061149290244753816 12.999999999999996
    vertex 43.02431697426946 0.06116748268752809 16.110912703516533
  endloop
endfacet
facet normal 4.3076126131660884e-07 -0.9999999999603555 -8.89401301032776e-06
  outer loop
    vertex 43.02431697426946 0.06116748268752809 16.110912703516533
    vertex 32.41340427071747 0.061149290244753816 12.999999999999996
    vertex 44.16340427077263 0.06118058704256023 15.236860279320243
  endloop
endfacet
facet normal 4.3076126131660884e-07 -0.9999999999603555 -8.89401301032776e-06
  outer loop
    vertex 44.16340427077263 0.06118058704256023 15.236860279320243
    vertex 32.41340427071747 0.061149290244753816 12.999999999999996
    vertex 45.489899522682165 0.06119155857254227 14.687407955627714
  endloop
endfacet
facet normal 4.3076126131660884e-07 -0.9999999999603555 -8.89401301032776e-06
  outer loop
    vertex 45.489899522682165 0.06119155857254227 14.687407955627714
    vertex 32.41340427071747 0.061149290244753816 12.999999999999996
    vertex 46.91340427071748 0.06119964958583724 14.500000000285699
  endloop
endfacet
facet normal 4.3076126131660884e-07 -0.9999999999603555 -8.89401301032776e-06
  outer loop
    vertex 32.41340427071747 0.061149290244753816 39.99999999999999
    vertex 42.150264549998596 0.06115313854758531 17.24999999994753
    vertex 41.60081222623415 0.06113853215216419 18.57649525179223
  endloop
endfacet
facet normal 4.3076126131660884e-07 -0.9999999999603555 -8.89401301032776e-06
  outer loop
    vertex 32.41340427071747 0.061149290244753816 39.99999999999999
    vertex 41.60081222623415 0.06113853215216419 18.57649525179223
    vertex 41.41340427082778 0.061124658902974464 19.999999999774467
  endloop
endfacet
facet normal 4.3076126131660884e-07 -0.9999999999603555 -8.89401301032776e-06
  outer loop
    vertex 32.41340427071747 0.061149290244753816 39.99999999999999
    vertex 41.41340427082778 0.061124658902974464 19.999999999774467
    vertex 41.60081222623415 0.06111246423902179 21.42350474777207
  endloop
endfacet
facet normal 4.3076126131660884e-07 -0.9999999999603555 -8.89401301032776e-06
  outer loop
    vertex 32.41340427071747 0.061149290244753816 39.99999999999999
    vertex 41.60081222623415 0.06111246423902179 21.42350474777207
    vertex 42.150264549998596 0.06110277920650189 22.74999999966183
  endloop
endfacet
facet normal 4.3076126131660884e-07 -0.9999999999603555 -8.89401301032776e-06
  outer loop
    vertex 32.41340427071747 0.061149290244753816 39.99999999999999
    vertex 42.150264549998596 0.06110277920650189 22.74999999966183
    vertex 43.02431697426946 0.06109626382437573 23.88908729616451
  endloop
endfacet
facet normal 4.3076126131660884e-07 -0.9999999999603555 -8.89401301032776e-06
  outer loop
    vertex 32.41340427071747 0.061149290244753816 39.99999999999999
    vertex 43.02431697426946 0.06109626382437573 23.88908729616451
    vertex 44.16340427077263 0.06109336210516805 24.76313972045422
  endloop
endfacet
facet normal 4.3076126131660884e-07 -0.9999999999603555 -8.89401301032776e-06
  outer loop
    vertex 32.41340427071747 0.061149290244753816 39.99999999999999
    vertex 44.16340427077263 0.06109336210516805 24.76313972045422
    vertex 45.48989952268216 0.06109427179624751 25.312592044255535
  endloop
endfacet
facet normal 4.3076126131660884e-07 -0.9999999999603555 -8.89401301032776e-06
  outer loop
    vertex 32.41340427071747 0.061149290244753816 39.99999999999999
    vertex 45.48989952268216 0.06109427179624751 25.312592044255535
    vertex 46.91340427071748 0.061098930903670384 25.499999999714298
  endloop
endfacet
facet normal 4.3076126131660884e-07 -0.9999999999603555 -8.89401301032776e-06
  outer loop
    vertex 32.41340427071747 0.061149290244753816 39.99999999999999
    vertex 46.91340427071748 0.061098930903670384 25.499999999714298
    vertex 49.91340427071748 0.061149290244753816 39.99999999999999
  endloop
endfacet
facet normal 4.3076126131660884e-07 -0.9999999999603555 -8.89401301032776e-06
  outer loop
    vertex -1.7925005037699397 0.061149290244753816 15.170370868554656
    vertex -4.380690954795147 0.061149290244753816 15.170370868554656
    vertex -3.086595729282544 0.061149290244753816 14.999999999999998
  endloop
endfacet
facet normal 4.3076126131660884e-07 -0.9999999999603555 -8.89401301032776e-06
  outer loop
    vertex -4.380690954795147 0.061149290244753816 15.170370868554656
    vertex -1.7925005037699397 0.061149290244753816 15.170370868554656
    vertex -0.5865957292825437 0.061149290244753816 15.669872981077804
  endloop
endfacet
facet normal 4.3076126131660884e-07 -0.9999999999603555 -8.89401301032776e-06
  outer loop
    vertex -4.380690954795147 0.061149290244753816 15.170370868554656
    vertex -0.5865957292825437 0.061149290244753816 15.669872981077804
    vertex -5.586595729282544 0.061149290244753816 15.669872981077802
  endloop
endfacet
facet normal 4.3076126131660884e-07 -0.9999999999603555 -8.89401301032776e-06
  outer loop
    vertex -5.586595729282544 0.061149290244753816 15.669872981077802
    vertex -0.5865957292825437 0.061149290244753816 15.669872981077804
    vertex -6.622129635215282 0.061149290244753816 16.46446609406726
  endloop
endfacet
facet normal 4.3076126131660884e-07 -0.9999999999603555 -8.89401301032776e-06
  outer loop
    vertex -6.622129635215282 0.061149290244753816 16.46446609406726
    vertex -0.5865957292825437 0.061149290244753816 15.669872981077804
    vertex -0.08659572928254428 0.061149290244753816 16.053536475067286
  endloop
endfacet
facet normal -0.003886636892804888 0.9999924469983078 7.271649868427531e-19
  outer loop
    vertex 17.413312299087465 0.004413070854070063 10.0
    vertex 32.01096894330716 0.061149290244753816 2.6853897573319926e-30
    vertex 17.413312299087465 0.004413070854070063 3.6151276651056032e-31
  endloop
endfacet
facet normal -0.003886636892804888 0.9999924469983078 7.271649868427531e-19
  outer loop
    vertex 32.01096894330716 0.061149290244753816 2.6853897573319926e-30
    vertex 32.413199004062086 0.06271262424614339 10.0
    vertex 32.413199004062086 0.06271262424614339 3.6151276651056032e-31
  endloop
endfacet
facet normal -0.003886636892804888 0.9999924469983078 7.271649868427531e-19
  outer loop
    vertex 32.413199004062086 0.06271262424614339 10.0
    vertex 32.01096894330716 0.061149290244753816 2.6853897573319926e-30
    vertex 17.413312299087465 0.004413070854070063 10.0
  endloop
endfacet
facet normal 0.003886636892804936 -0.9999924469983078 1.8542707164490204e-17
  outer loop
    vertex 32.45206537299013 -9.937211845736934 5.0
    vertex 17.452178668015513 -9.99551139912901 -7.27164986842717e-18
    vertex 32.452065372990134 -9.937211845736934 -7.27164986842717e-18
  endloop
endfacet
facet normal 0.003886636892804936 -0.9999924469983078 1.8542707164490204e-17
  outer loop
    vertex 17.452178668015513 -9.99551139912901 -7.27164986842717e-18
    vertex 32.45206537299013 -9.937211845736934 5.0
    vertex 17.452178668015513 -9.99551139912901 5.0
  endloop
endfacet
facet normal 0.9999924469983078 0.003886636892804697 2.256412122145869e-16
  outer loop
    vertex 32.413199004062086 0.06271262424614339 3.6151276651056032e-31
    vertex 32.45206537299013 -9.937211845736934 5.0
    vertex 32.452065372990134 -9.937211845736934 -7.27164986842717e-18
  endloop
endfacet
facet normal 0.9999924469983078 0.003886636892804697 2.256412122145869e-16
  outer loop
    vertex 32.45206537299013 -9.937211845736934 5.0
    vertex 32.413199004062086 0.06271262424614339 3.6151276651056032e-31
    vertex 32.413199004062086 0.06271262424614339 10.0
  endloop
endfacet
facet normal 0.0017381568592340659 -0.4472102176949143 0.894427190999916
  outer loop
    vertex 17.452178668015513 -9.99551139912901 5.0
    vertex 32.413199004062086 0.06271262424614339 10.0
    vertex 17.413312299087465 0.004413070854070063 10.0
  endloop
endfacet
facet normal 0.0017381568592340659 -0.4472102176949143 0.894427190999916
  outer loop
    vertex 32.413199004062086 0.06271262424614339 10.0
    vertex 17.452178668015513 -9.99551139912901 5.0
    vertex 32.45206537299013 -9.937211845736934 5.0
  endloop
endfacet
facet normal -0.9999924469983078 -0.0038866368928047543 2.2564121221458686e-19
  outer loop
    vertex 17.413312299087465 0.004413070854070063 10.0
    vertex 17.452178668015513 -9.99551139912901 -7.27164986842717e-18
    vertex 17.452178668015513 -9.99551139912901 5.0
  endloop
endfacet
facet normal -0.9999924469983078 -0.0038866368928047543 2.2564121221458686e-19
  outer loop
    vertex 17.452178668015513 -9.99551139912901 -7.27164986842717e-18
    vertex 17.413312299087465 0.004413070854070063 10.0
    vertex 17.413312299087465 0.004413070854070063 3.6151276651056032e-31
  endloop
endfacet
facet normal -2.8262262649437726e-21 7.271594945643773e-19 -1.0
  outer loop
    vertex 32.01096894330716 0.061149290244753816 2.6853897573319926e-30
    vertex 17.452178668015513 -9.99551139912901 -7.27164986842717e-18
    vertex 17.413312299087465 0.004413070854070063 3.6151276651056032e-31
  endloop
endfacet
facet normal -2.8262262649437726e-21 7.271594945643773e-19 -1.0
  outer loop
    vertex 17.452178668015513 -9.99551139912901 -7.27164986842717e-18
    vertex 32.01096894330716 0.061149290244753816 2.6853897573319926e-30
    vertex 32.452065372990134 -9.937211845736934 -7.27164986842717e-18
  endloop
endfacet
facet normal -2.8262262649437726e-21 7.271594945643773e-19 -1.0
  outer loop
    vertex 32.452065372990134 -9.937211845736934 -7.27164986842717e-18
    vertex 32.01096894330716 0.061149290244753816 2.6853897573319926e-30
    vertex 32.413199004062086 0.06271262424614339 3.6151276651056032e-31
  endloop
endfacet
facet normal -0.0 -0.0 1.0
  outer loop
    vertex 17.413404270717468 0.061149290244753816 39.99999999999999
    vertex -0.08659572928254423 10.061149290244758 39.99999999999999
    vertex -0.08659572928254423 0.061149290244753816 39.99999999999999
  endloop
endfacet
facet normal -0.0 -0.0 1.0
  outer loop
    vertex -0.08659572928254423 10.061149290244758 39.99999999999999
    vertex 17.413404270717468 0.061149290244753816 39.99999999999999
    vertex 17.413404270717468 10.061149290244753 39.99999999999999
  endloop
endfacet
facet normal 0.0 0.0 1.0
  outer loop
    vertex 32.41340427071747 0.061149290244753816 12.999999999999996
    vertex 17.413404270717468 10.061149290244753 12.999999999999996
    vertex 17.413404270717468 0.061149290244753816 12.999999999999996
  endloop
endfacet
facet normal 0.0 0.0 1.0
  outer loop
    vertex 17.413404270717468 10.061149290244753 12.999999999999996
    vertex 32.41340427071747 0.061149290244753816 12.999999999999996
    vertex 32.41340427071747 10.061149290244753 12.999999999999996
  endloop
endfacet
facet normal -1.0 0.0 0.0
  outer loop
    vertex 32.41340427071747 10.061149290244753 39.99999999999999
    vertex 32.41340427071747 0.061149290244753816 12.999999999999996
    vertex 32.41340427071747 0.061149290244753816 39.99999999999999
  endloop
endfacet
facet normal -1.0 0.0 0.0
  outer loop
    vertex 32.41340427071747 0.061149290244753816 12.999999999999996
    vertex 32.41340427071747 10.061149290244753 39.99999999999999
    vertex 32.41340427071747 10.061149290244753 12.999999999999996
  endloop
endfacet
facet normal 1.0 0.0 0.0
  outer loop
    vertex 17.413404270717468 10.061149290244753 12.999999999999996
    vertex 17.413404270717468 0.061149290244753816 39.99999999999999
    vertex 17.413404270717468 0.061149290244753816 12.999999999999996
  endloop
endfacet
facet normal 1.0 0.0 0.0
  outer loop
    vertex 17.413404270717468 0.061149290244753816 39.99999999999999
    vertex 17.413404270717468 10.061149290244753 12.999999999999996
    vertex 17.413404270717468 10.061149290244753 39.99999999999999
  endloop
endfacet
facet normal 9.455500799497572e-08 0.9999999999996785 7.963469601496805e-07
  outer loop
    vertex -4.380690954795147 10.061149290244753 15.170370868554656
    vertex -1.7925005037699397 10.061149290244753 15.170370868554656
    vertex -3.086595729282544 10.061149290244753 14.999999999999998
  endloop
endfacet
facet normal 9.455500799497572e-08 0.9999999999996785 7.963469601496805e-07
  outer loop
    vertex -1.7925005037699397 10.061149290244753 15.170370868554656
    vertex -4.380690954795147 10.061149290244753 15.170370868554656
    vertex -5.586595729282544 10.061149290244753 15.669872981077802
  endloop
endfacet
facet normal 9.455500799497572e-08 0.9999999999996785 7.963469601496805e-07
  outer loop
    vertex -1.7925005037699397 10.061149290244753 15.170370868554656
    vertex -5.586595729282544 10.061149290244753 15.669872981077802
    vertex -0.5865957292825437 10.061149290244753 15.669872981077804
  endloop
endfacet
facet normal 9.455500799497572e-08 0.9999999999996785 7.963469601496805e-07
  outer loop
    vertex -0.5865957292825437 10.061149290244753 15.669872981077804
    vertex -5.586595729282544 10.061149290244753 15.669872981077802
    vertex -6.622129635215282 10.061149290244753 16.46446609406726
  endloop
endfacet
facet normal 9.455500799497572e-08 0.9999999999996785 7.963469601496805e-07
  outer loop
    vertex -0.5865957292825437 10.061149290244753 15.669872981077804
    vertex -6.622129635215282 10.061149290244753 16.46446609406726
    vertex -0.08659572928254428 10.061149290244753 16.053536475067286
  endloop
endfacet
facet normal 9.455500799497572e-08 0.9999999999996785 7.963469601496805e-07
  outer loop
    vertex -5.586595729282547 10.061149290244753 24.330127018922187
    vertex -0.08659572928254423 10.061149290244753 23.946463524932714
    vertex -6.622129635215284 10.061149290244753 23.53553390593273
  endloop
endfacet
facet normal 9.455500799497572e-08 0.9999999999996785 7.963469601496805e-07
  outer loop
    vertex -0.08659572928254423 10.061149290244753 23.946463524932714
    vertex -5.586595729282547 10.061149290244753 24.330127018922187
    vertex -0.5865957292825479 10.061149290244753 24.330127018922195
  endloop
endfacet
facet normal 9.455500799497572e-08 0.9999999999996785 7.963469601496805e-07
  outer loop
    vertex -0.5865957292825479 10.061149290244753 24.330127018922195
    vertex -5.586595729282547 10.061149290244753 24.330127018922187
    vertex -4.380690954795152 10.061149290244753 24.829629131445337
  endloop
endfacet
facet normal 9.455500799497572e-08 0.9999999999996785 7.963469601496805e-07
  outer loop
    vertex -0.5865957292825479 10.061149290244753 24.330127018922195
    vertex -4.380690954795152 10.061149290244753 24.829629131445337
    vertex -1.7925005037699429 10.061149290244753 24.82962913144534
  endloop
endfacet
facet normal 9.455500799497572e-08 0.9999999999996785 7.963469601496805e-07
  outer loop
    vertex -1.7925005037699429 10.061149290244753 24.82962913144534
    vertex -4.380690954795152 10.061149290244753 24.829629131445337
    vertex -3.0865957292825454 10.061149290244753 24.999999999999996
  endloop
endfacet
facet normal 9.455500799497572e-08 0.9999999999996785 7.963469601496805e-07
  outer loop
    vertex -0.08659572928254428 10.061149290244753 16.053536475067286
    vertex 49.91340427071748 10.061149290244758 5.009266748153425e-30
    vertex -0.08659572928254423 10.061149290244758 5.009266748153425e-30
  endloop
endfacet
facet normal 9.455500799497572e-08 0.9999999999996785 7.963469601496805e-07
  outer loop
    vertex 49.91340427071748 10.061149290244758 5.009266748153425e-30
    vertex -0.08659572928254428 10.061149290244753 16.053536475067286
    vertex 17.413404270717468 10.061149290244753 12.999999999999996
  endloop
endfacet
facet normal 9.455500799497572e-08 0.9999999999996785 7.963469601496805e-07
  outer loop
    vertex 17.413404270717468 10.061149290244753 12.999999999999996
    vertex -0.08659572928254428 10.061149290244753 16.053536475067286
    vertex 17.413404270717468 10.061149290244753 39.99999999999999
  endloop
endfacet
facet normal 9.455500799497572e-08 0.9999999999996785 7.963469601496805e-07
  outer loop
    vertex 17.413404270717468 10.061149290244753 39.99999999999999
    vertex -0.08659572928254428 10.061149290244753 16.053536475067286
    vertex -6.622129635215282 10.061149290244753 16.46446609406726
  endloop
endfacet
facet normal 9.455500799497572e-08 0.9999999999996785 7.963469601496805e-07
  outer loop
    vertex 17.413404270717468 10.061149290244753 39.99999999999999
    vertex -6.622129635215282 10.061149290244753 16.46446609406726
    vertex -0.08659572928254423 10.061149290244753 23.946463524932714
  endloop
endfacet
facet normal 9.455500799497572e-08 0.9999999999996785 7.963469601496805e-07
  outer loop
    vertex -0.08659572928254423 10.061149290244753 23.946463524932714
    vertex -6.622129635215282 10.061149290244753 16.46446609406726
    vertex -7.416722748204737 10.061149290244753 17.499999999999996
  endloop
endfacet
facet normal 9.455500799497572e-08 0.9999999999996785 7.963469601496805e-07
  outer loop
    vertex -0.08659572928254423 10.061149290244753 23.946463524932714
    vertex -7.416722748204737 10.061149290244753 17.499999999999996
    vertex -7.916224860727885 10.061149290244753 18.70590477448739
  endloop
endfacet
facet normal 9.455500799497572e-08 0.9999999999996785 7.963469601496805e-07
  outer loop
    vertex -0.08659572928254423 10.061149290244753 23.946463524932714
    vertex -7.916224860727885 10.061149290244753 18.70590477448739
    vertex -8.086595729282545 10.061149290244753 19.999999999999996
  endloop
endfacet
facet normal 9.455500799497572e-08 0.9999999999996785 7.963469601496805e-07
  outer loop
    vertex -0.08659572928254423 10.061149290244753 23.946463524932714
    vertex -8.086595729282545 10.061149290244753 19.999999999999996
    vertex -7.916224860727886 10.061149290244753 21.2940952255126
  endloop
endfacet
facet normal 9.455500799497572e-08 0.9999999999996785 7.963469601496805e-07
  outer loop
    vertex -0.08659572928254423 10.061149290244753 23.946463524932714
    vertex -7.916224860727886 10.061149290244753 21.2940952255126
    vertex -7.416722748204739 10.061149290244753 22.499999999999996
  endloop
endfacet
facet normal 9.455500799497572e-08 0.9999999999996785 7.963469601496805e-07
  outer loop
    vertex -0.08659572928254423 10.061149290244753 23.946463524932714
    vertex -7.416722748204739 10.061149290244753 22.499999999999996
    vertex -6.622129635215284 10.061149290244753 23.53553390593273
  endloop
endfacet
facet normal 9.455500799497572e-08 0.9999999999996785 7.963469601496805e-07
  outer loop
    vertex 17.413404270717468 10.061149290244753 39.99999999999999
    vertex -0.08659572928254423 10.061149290244753 23.946463524932714
    vertex -0.08659572928254423 10.061149290244758 39.99999999999999
  endloop
endfacet
facet normal 9.455500799497572e-08 0.9999999999996785 7.963469601496805e-07
  outer loop
    vertex 32.41340427071747 10.061149290244753 12.999999999999996
    vertex 45.4898580722622 10.0611915581153 14.687494133850223
    vertex 46.913362820297515 10.061199649128595 14.500086178508205
  endloop
endfacet
facet normal 9.455500799497572e-08 0.9999999999996785 7.963469601496805e-07
  outer loop
    vertex 45.4898580722622 10.0611915581153 14.687494133850223
    vertex 32.41340427071747 10.061149290244753 12.999999999999996
    vertex 44.16336282035267 10.061180586585317 15.23694645754275
  endloop
endfacet
facet normal 9.455500799497572e-08 0.9999999999996785 7.963469601496805e-07
  outer loop
    vertex 44.16336282035267 10.061180586585317 15.23694645754275
    vertex 32.41340427071747 10.061149290244753 12.999999999999996
    vertex 43.024275523849504 10.061167482230285 16.11099888173904
  endloop
endfacet
facet normal 9.455500799497572e-08 0.9999999999996785 7.963469601496805e-07
  outer loop
    vertex 43.024275523849504 10.061167482230285 16.11099888173904
    vertex 32.41340427071747 10.061149290244753 12.999999999999996
    vertex 42.15022309957863 10.061153138090344 17.250086178170037
  endloop
endfacet
facet normal 9.455500799497572e-08 0.9999999999996785 7.963469601496805e-07
  outer loop
    vertex 42.15022309957863 10.061153138090344 17.250086178170037
    vertex 32.41340427071747 10.061149290244753 12.999999999999996
    vertex 32.41340427071747 10.061149290244753 39.99999999999999
  endloop
endfacet
facet normal 9.455500799497572e-08 0.9999999999996785 7.963469601496805e-07
  outer loop
    vertex 42.15022309957863 10.061153138090344 17.250086178170037
    vertex 32.41340427071747 10.061149290244753 39.99999999999999
    vertex 41.60077077581418 10.061138531694922 18.576581430014738
  endloop
endfacet
facet normal 9.455500799497572e-08 0.9999999999996785 7.963469601496805e-07
  outer loop
    vertex 41.60077077581418 10.061138531694922 18.576581430014738
    vertex 32.41340427071747 10.061149290244753 39.99999999999999
    vertex 41.41336282040782 10.061124658445731 20.000086177996973
  endloop
endfacet
facet normal 9.455500799497572e-08 0.9999999999996785 7.963469601496805e-07
  outer loop
    vertex 41.41336282040782 10.061124658445731 20.000086177996973
    vertex 32.41340427071747 10.061149290244753 39.99999999999999
    vertex 41.60077077581418 10.061112463781779 21.423590925994578
  endloop
endfacet
facet normal 9.455500799497572e-08 0.9999999999996785 7.963469601496805e-07
  outer loop
    vertex 41.60077077581418 10.061112463781779 21.423590925994578
    vertex 32.41340427071747 10.061149290244753 39.99999999999999
    vertex 42.15022309957863 10.06110277874926 22.750086177884338
  endloop
endfacet
facet normal 9.455500799497572e-08 0.9999999999996785 7.963469601496805e-07
  outer loop
    vertex 42.15022309957863 10.06110277874926 22.750086177884338
    vertex 32.41340427071747 10.061149290244753 39.99999999999999
    vertex 43.024275523849504 10.061096263367133 23.889173474387018
  endloop
endfacet
facet normal 9.455500799497572e-08 0.9999999999996785 7.963469601496805e-07
  outer loop
    vertex 43.024275523849504 10.061096263367133 23.889173474387018
    vertex 32.41340427071747 10.061149290244753 39.99999999999999
    vertex 44.16336282035267 10.061093361647925 24.763225898676726
  endloop
endfacet
facet normal 9.455500799497572e-08 0.9999999999996785 7.963469601496805e-07
  outer loop
    vertex 44.16336282035267 10.061093361647925 24.763225898676726
    vertex 32.41340427071747 10.061149290244753 39.99999999999999
    vertex 45.489858072262194 10.061094271339005 25.31267822247804
  endloop
endfacet
facet normal 9.455500799497572e-08 0.9999999999996785 7.963469601496805e-07
  outer loop
    vertex 45.489858072262194 10.061094271339005 25.31267822247804
    vertex 32.41340427071747 10.061149290244753 39.99999999999999
    vertex 46.913362820297515 10.061098930446429 25.500086177936804
  endloop
endfacet
facet normal 9.455500799497572e-08 0.9999999999996785 7.963469601496805e-07
  outer loop
    vertex 49.663362820242355 10.061117992989706 24.76322589890226
    vertex 49.91340427071748 10.061149290244758 39.99999999999999
    vertex 49.913362820460996 10.061135079420959 24.57139415163068
  endloop
endfacet
facet normal 9.455500799497572e-08 0.9999999999996785 7.963469601496805e-07
  outer loop
    vertex 49.91340427071748 10.061149290244758 39.99999999999999
    vertex 49.663362820242355 10.061117992989706 24.76322589890226
    vertex 48.33686756833283 10.061107021459723 25.312678222594787
  endloop
endfacet
facet normal 9.455500799497572e-08 0.9999999999996785 7.963469601496805e-07
  outer loop
    vertex 49.91340427071748 10.061149290244758 39.99999999999999
    vertex 48.33686756833283 10.061107021459723 25.312678222594787
    vertex 46.913362820297515 10.061098930446429 25.500086177936804
  endloop
endfacet
facet normal 9.455500799497572e-08 0.9999999999996785 7.963469601496805e-07
  outer loop
    vertex 49.91340427071748 10.061149290244758 39.99999999999999
    vertex 46.913362820297515 10.061098930446429 25.500086177936804
    vertex 32.41340427071747 10.061149290244753 39.99999999999999
  endloop
endfacet
facet normal 9.455500799497572e-08 0.9999999999996785 7.963469601496805e-07
  outer loop
    vertex 49.91340427071748 10.061149290244758 5.009266748153425e-30
    vertex 49.66336282024236 10.061205217927098 15.23694645776828
    vertex 49.913362820367944 10.061176935431401 15.428778204917553
  endloop
endfacet
facet normal 9.455500799497572e-08 0.9999999999996785 7.963469601496805e-07
  outer loop
    vertex 49.66336282024236 10.061205217927098 15.23694645776828
    vertex 49.91340427071748 10.061149290244758 5.009266748153425e-30
    vertex 48.33686756833283 10.061204308236018 14.687494133966965
  endloop
endfacet
facet normal 9.455500799497572e-08 0.9999999999996785 7.963469601496805e-07
  outer loop
    vertex 48.33686756833283 10.061204308236018 14.687494133966965
    vertex 49.91340427071748 10.061149290244758 5.009266748153425e-30
    vertex 46.913362820297515 10.061199649128595 14.500086178508205
  endloop
endfacet
facet normal 9.455500799497572e-08 0.9999999999996785 7.963469601496805e-07
  outer loop
    vertex 46.913362820297515 10.061199649128595 14.500086178508205
    vertex 49.91340427071748 10.061149290244758 5.009266748153425e-30
    vertex 32.41340427071747 10.061149290244753 12.999999999999996
  endloop
endfacet
facet normal 9.455500799497572e-08 0.9999999999996785 7.963469601496805e-07
  outer loop
    vertex 32.41340427071747 10.061149290244753 12.999999999999996
    vertex 49.91340427071748 10.061149290244758 5.009266748153425e-30
    vertex 17.413404270717468 10.061149290244753 12.999999999999996
  endloop
endfacet
facet normal 0.6087614290087185 -0.0 0.7933533402912368
  outer loop
    vertex -0.08659572928254423 0.061149290244753816 23.946463524932714
    vertex -0.5865957292825479 10.061149290244753 24.330127018922195
    vertex -0.5865957292825479 0.061149290244753816 24.330127018922195
  endloop
endfacet
facet normal 0.6087614290087185 -0.0 0.7933533402912368
  outer loop
    vertex -0.5865957292825479 10.061149290244753 24.330127018922195
    vertex -0.08659572928254423 0.061149290244753816 23.946463524932714
    vertex -0.08659572928254423 10.061149290244753 23.946463524932714
  endloop
endfacet
facet normal 0.3826834323650896 0.0 0.9238795325112867
  outer loop
    vertex -0.5865957292825479 0.061149290244753816 24.330127018922195
    vertex -1.7925005037699429 10.061149290244753 24.82962913144534
    vertex -1.7925005037699429 0.061149290244753816 24.82962913144534
  endloop
endfacet
facet normal 0.3826834323650896 0.0 0.9238795325112867
  outer loop
    vertex -1.7925005037699429 10.061149290244753 24.82962913144534
    vertex -0.5865957292825479 0.061149290244753816 24.330127018922195
    vertex -0.5865957292825479 10.061149290244753 24.330127018922195
  endloop
endfacet
facet normal 0.13052619222004974 0.0 0.9914448613738106
  outer loop
    vertex -1.7925005037699429 0.061149290244753816 24.82962913144534
    vertex -3.0865957292825454 10.061149290244753 24.999999999999996
    vertex -3.0865957292825454 0.061149290244753816 24.999999999999996
  endloop
endfacet
facet normal 0.13052619222004974 0.0 0.9914448613738106
  outer loop
    vertex -3.0865957292825454 10.061149290244753 24.999999999999996
    vertex -1.7925005037699429 0.061149290244753816 24.82962913144534
    vertex -1.7925005037699429 10.061149290244753 24.82962913144534
  endloop
endfacet
facet normal -0.1305261922200515 0.0 0.9914448613738105
  outer loop
    vertex -3.0865957292825454 0.061149290244753816 24.999999999999996
    vertex -4.380690954795152 10.061149290244753 24.829629131445337
    vertex -4.380690954795152 0.061149290244753816 24.829629131445337
  endloop
endfacet
facet normal -0.1305261922200515 0.0 0.9914448613738105
  outer loop
    vertex -4.380690954795152 10.061149290244753 24.829629131445337
    vertex -3.0865957292825454 0.061149290244753816 24.999999999999996
    vertex -3.0865957292825454 10.061149290244753 24.999999999999996
  endloop
endfacet
facet normal -0.38268343236509156 0.0 0.9238795325112861
  outer loop
    vertex -4.380690954795152 0.061149290244753816 24.829629131445337
    vertex -5.586595729282547 10.061149290244753 24.330127018922187
    vertex -5.586595729282547 0.061149290244753816 24.330127018922187
  endloop
endfacet
facet normal -0.38268343236509156 0.0 0.9238795325112861
  outer loop
    vertex -5.586595729282547 10.061149290244753 24.330127018922187
    vertex -4.380690954795152 0.061149290244753816 24.829629131445337
    vertex -4.380690954795152 10.061149290244753 24.829629131445337
  endloop
endfacet
facet normal -0.6087614290087205 0.0 0.7933533402912352
  outer loop
    vertex -5.586595729282547 0.061149290244753816 24.330127018922187
    vertex -6.622129635215284 10.061149290244753 23.53553390593273
    vertex -6.622129635215284 0.061149290244753816 23.53553390593273
  endloop
endfacet
facet normal -0.6087614290087205 0.0 0.7933533402912352
  outer loop
    vertex -6.622129635215284 10.061149290244753 23.53553390593273
    vertex -5.586595729282547 0.061149290244753816 24.330127018922187
    vertex -5.586595729282547 10.061149290244753 24.330127018922187
  endloop
endfacet
facet normal -0.7933533402912352 0.0 0.6087614290087205
  outer loop
    vertex -6.622129635215284 10.061149290244753 23.53553390593273
    vertex -7.416722748204739 0.061149290244753816 22.499999999999996
    vertex -6.622129635215284 0.061149290244753816 23.53553390593273
  endloop
endfacet
facet normal -0.7933533402912352 0.0 0.6087614290087205
  outer loop
    vertex -7.416722748204739 0.061149290244753816 22.499999999999996
    vertex -6.622129635215284 10.061149290244753 23.53553390593273
    vertex -7.416722748204739 10.061149290244753 22.499999999999996
  endloop
endfacet
facet normal -0.923879532511287 0.0 0.3826834323650895
  outer loop
    vertex -7.416722748204739 10.061149290244753 22.499999999999996
    vertex -7.916224860727886 0.061149290244753816 21.2940952255126
    vertex -7.416722748204739 0.061149290244753816 22.499999999999996
  endloop
endfacet
facet normal -0.923879532511287 0.0 0.3826834323650895
  outer loop
    vertex -7.916224860727886 0.061149290244753816 21.2940952255126
    vertex -7.416722748204739 10.061149290244753 22.499999999999996
    vertex -7.916224860727886 10.061149290244753 21.2940952255126
  endloop
endfacet
facet normal -0.9914448613738106 0.0 0.13052619222005082
  outer loop
    vertex -7.916224860727886 10.061149290244753 21.2940952255126
    vertex -8.086595729282545 0.061149290244753816 19.999999999999996
    vertex -7.916224860727886 0.061149290244753816 21.2940952255126
  endloop
endfacet
facet normal -0.9914448613738106 0.0 0.13052619222005082
  outer loop
    vertex -8.086595729282545 0.061149290244753816 19.999999999999996
    vertex -7.916224860727886 10.061149290244753 21.2940952255126
    vertex -8.086595729282545 10.061149290244753 19.999999999999996
  endloop
endfacet
facet normal -0.9914448613738104 -0.0 -0.13052619222005157
  outer loop
    vertex -8.086595729282545 10.061149290244753 19.999999999999996
    vertex -7.916224860727885 0.061149290244753816 18.70590477448739
    vertex -8.086595729282545 0.061149290244753816 19.999999999999996
  endloop
endfacet
facet normal -0.9914448613738104 -0.0 -0.13052619222005157
  outer loop
    vertex -7.916224860727885 0.061149290244753816 18.70590477448739
    vertex -8.086595729282545 10.061149290244753 19.999999999999996
    vertex -7.916224860727885 10.061149290244753 18.70590477448739
  endloop
endfacet
facet normal -0.923879532511287 -0.0 -0.3826834323650895
  outer loop
    vertex -7.916224860727885 10.061149290244753 18.70590477448739
    vertex -7.416722748204737 0.061149290244753816 17.499999999999996
    vertex -7.916224860727885 0.061149290244753816 18.70590477448739
  endloop
endfacet
facet normal -0.923879532511287 -0.0 -0.3826834323650895
  outer loop
    vertex -7.416722748204737 0.061149290244753816 17.499999999999996
    vertex -7.916224860727885 10.061149290244753 18.70590477448739
    vertex -7.416722748204737 10.061149290244753 17.499999999999996
  endloop
endfacet
facet normal -0.7933533402912352 -0.0 -0.6087614290087205
  outer loop
    vertex -7.416722748204737 10.061149290244753 17.499999999999996
    vertex -6.622129635215282 0.061149290244753816 16.46446609406726
    vertex -7.416722748204737 0.061149290244753816 17.499999999999996
  endloop
endfacet
facet normal -0.7933533402912352 -0.0 -0.6087614290087205
  outer loop
    vertex -6.622129635215282 0.061149290244753816 16.46446609406726
    vertex -7.416722748204737 10.061149290244753 17.499999999999996
    vertex -6.622129635215282 10.061149290244753 16.46446609406726
  endloop
endfacet
facet normal -0.6087614290087212 -0.0 -0.7933533402912347
  outer loop
    vertex -5.586595729282544 10.061149290244753 15.669872981077802
    vertex -6.622129635215282 0.061149290244753816 16.46446609406726
    vertex -6.622129635215282 10.061149290244753 16.46446609406726
  endloop
endfacet
facet normal -0.6087614290087212 -0.0 -0.7933533402912347
  outer loop
    vertex -6.622129635215282 0.061149290244753816 16.46446609406726
    vertex -5.586595729282544 10.061149290244753 15.669872981077802
    vertex -5.586595729282544 0.061149290244753816 15.669872981077802
  endloop
endfacet
facet normal -0.3826834323650877 -0.0 -0.9238795325112877
  outer loop
    vertex -4.380690954795147 10.061149290244753 15.170370868554656
    vertex -5.586595729282544 0.061149290244753816 15.669872981077802
    vertex -5.586595729282544 10.061149290244753 15.669872981077802
  endloop
endfacet
facet normal -0.3826834323650877 -0.0 -0.9238795325112877
  outer loop
    vertex -5.586595729282544 0.061149290244753816 15.669872981077802
    vertex -4.380690954795147 10.061149290244753 15.170370868554656
    vertex -4.380690954795147 0.061149290244753816 15.170370868554656
  endloop
endfacet
facet normal -0.13052619222005174 -0.0 -0.9914448613738104
  outer loop
    vertex -3.086595729282544 10.061149290244753 14.999999999999998
    vertex -4.380690954795147 0.061149290244753816 15.170370868554656
    vertex -4.380690954795147 10.061149290244753 15.170370868554656
  endloop
endfacet
facet normal -0.13052619222005174 -0.0 -0.9914448613738104
  outer loop
    vertex -4.380690954795147 0.061149290244753816 15.170370868554656
    vertex -3.086595729282544 10.061149290244753 14.999999999999998
    vertex -3.086595729282544 0.061149290244753816 14.999999999999998
  endloop
endfacet
facet normal 0.13052619222005168 0.0 -0.9914448613738104
  outer loop
    vertex -1.7925005037699397 10.061149290244753 15.170370868554656
    vertex -3.086595729282544 0.061149290244753816 14.999999999999998
    vertex -3.086595729282544 10.061149290244753 14.999999999999998
  endloop
endfacet
facet normal 0.13052619222005168 0.0 -0.9914448613738104
  outer loop
    vertex -3.086595729282544 0.061149290244753816 14.999999999999998
    vertex -1.7925005037699397 10.061149290244753 15.170370868554656
    vertex -1.7925005037699397 0.061149290244753816 15.170370868554656
  endloop
endfacet
facet normal 0.3826834323650894 0.0 -0.9238795325112871
  outer loop
    vertex -0.5865957292825437 10.061149290244753 15.669872981077804
    vertex -1.7925005037699397 0.061149290244753816 15.170370868554656
    vertex -1.7925005037699397 10.061149290244753 15.170370868554656
  endloop
endfacet
facet normal 0.3826834323650894 0.0 -0.9238795325112871
  outer loop
    vertex -1.7925005037699397 0.061149290244753816 15.170370868554656
    vertex -0.5865957292825437 10.061149290244753 15.669872981077804
    vertex -0.5865957292825437 0.061149290244753816 15.669872981077804
  endloop
endfacet
facet normal 0.6087614290087219 0.0 -0.7933533402912343
  outer loop
    vertex -0.08659572928254428 10.061149290244753 16.053536475067286
    vertex -0.5865957292825437 0.061149290244753816 15.669872981077804
    vertex -0.5865957292825437 10.061149290244753 15.669872981077804
  endloop
endfacet
facet normal 0.6087614290087219 0.0 -0.7933533402912343
  outer loop
    vertex -0.5865957292825437 0.061149290244753816 15.669872981077804
    vertex -0.08659572928254428 10.061149290244753 16.053536475067286
    vertex -0.08659572928254428 0.061149290244753816 16.053536475067286
  endloop
endfacet
facet normal -1.0 0.0 0.0
  outer loop
    vertex -0.08659572928254423 10.061149290244758 39.99999999999999
    vertex -0.08659572928254423 0.061149290244753816 23.946463524932714
    vertex -0.08659572928254423 0.061149290244753816 39.99999999999999
  endloop
endfacet
facet normal -1.0 0.0 0.0
  outer loop
    vertex -0.08659572928254423 0.061149290244753816 23.946463524932714
    vertex -0.08659572928254423 10.061149290244758 39.99999999999999
    vertex -0.08659572928254423 10.061149290244753 23.946463524932714
  endloop
endfacet
facet normal -0.6087614294064787 4.313636375627234e-06 -0.7933533399742977
  outer loop
    vertex 49.913362820460996 10.061135079420959 24.57139415163068
    vertex 49.66340427066232 0.061117993446947405 24.763139720679753
    vertex 49.663362820242355 10.061117992989706 24.76322589890226
  endloop
endfacet
facet normal -0.6087614294064787 4.313636375627234e-06 -0.7933533399742977
  outer loop
    vertex 49.66340427066232 0.061117993446947405 24.763139720679753
    vertex 49.913362820460996 10.061135079420959 24.57139415163068
    vertex 49.91340427088095 0.06113507987820032 24.571307973408175
  endloop
endfacet
facet normal -0.38268343235956986 6.3755906941181364e-06 -0.9238795324915747
  outer loop
    vertex 49.663362820242355 10.061117992989706 24.76322589890226
    vertex 48.33690901875279 0.061107021916965355 25.31259204437228
    vertex 48.33686756833283 10.061107021459723 25.312678222594787
  endloop
endfacet
facet normal -0.38268343235956986 6.3755906941181364e-06 -0.9238795324915747
  outer loop
    vertex 48.33690901875279 0.061107021916965355 25.31259204437228
    vertex 49.663362820242355 10.061117992989706 24.76322589890226
    vertex 49.66340427066232 0.061117993446947405 24.763139720679753
  endloop
endfacet
facet normal -0.1305261922165306 8.003059038468534e-06 -0.9914448613419732
  outer loop
    vertex 48.33686756833283 10.061107021459723 25.312678222594787
    vertex 46.91340427071748 0.061098930903670384 25.499999999714298
    vertex 46.913362820297515 10.061098930446429 25.500086177936804
  endloop
endfacet
facet normal -0.1305261922165306 8.003059038468534e-06 -0.9914448613419732
  outer loop
    vertex 46.91340427071748 0.061098930903670384 25.499999999714298
    vertex 48.33686756833283 10.061107021459723 25.312678222594787
    vertex 48.33690901875279 0.061107021916965355 25.31259204437228
  endloop
endfacet
facet normal 0.1305261922213057 9.085132135027589e-06 -0.9914448613320194
  outer loop
    vertex 46.913362820297515 10.061098930446429 25.500086177936804
    vertex 45.48989952268216 0.06109427179624751 25.312592044255535
    vertex 45.489858072262194 10.061094271339005 25.31267822247804
  endloop
endfacet
facet normal 0.1305261922213057 9.085132135027589e-06 -0.9914448613320194
  outer loop
    vertex 45.48989952268216 0.06109427179624751 25.312592044255535
    vertex 46.913362820297515 10.061098930446429 25.500086177936804
    vertex 46.91340427071748 0.061098930903670384 25.499999999714298
  endloop
endfacet
facet normal 0.38268343236397745 9.548068490475357e-06 -0.9238795324624091
  outer loop
    vertex 45.489858072262194 10.061094271339005 25.31267822247804
    vertex 44.16340427077263 0.06109336210516805 24.76313972045422
    vertex 44.16336282035267 10.061093361647925 24.763225898676726
  endloop
endfacet
facet normal 0.38268343236397745 9.548068490475357e-06 -0.9238795324624091
  outer loop
    vertex 44.16340427077263 0.06109336210516805 24.76313972045422
    vertex 45.489858072262194 10.061094271339005 25.31267822247804
    vertex 45.48989952268216 0.06109427179624751 25.312592044255535
  endloop
endfacet
facet normal 0.6087614290053173 9.360319757226688e-06 -0.7933533402386281
  outer loop
    vertex 44.16336282035267 10.061093361647925 24.763225898676726
    vertex 43.02431697426946 0.06109626382437573 23.88908729616451
    vertex 43.024275523849504 10.061096263367133 23.889173474387018
  endloop
endfacet
facet normal 0.6087614290053173 9.360319757226688e-06 -0.7933533402386281
  outer loop
    vertex 43.02431697426946 0.06109626382437573 23.88908729616451
    vertex 44.16336282035267 10.061093361647925 24.763225898676726
    vertex 44.16340427077263 0.06109336210516805 24.76313972045422
  endloop
endfacet
facet normal 0.7933533402857939 8.534680701183025e-06 -0.6087614289559848
  outer loop
    vertex 42.150264549998596 0.06110277920650189 22.74999999966183
    vertex 43.024275523849504 10.061096263367133 23.889173474387018
    vertex 43.02431697426946 0.06109626382437573 23.88908729616451
  endloop
endfacet
facet normal 0.7933533402857939 8.534680701183025e-06 -0.6087614289559848
  outer loop
    vertex 43.024275523849504 10.061096263367133 23.889173474387018
    vertex 42.150264549998596 0.06110277920650189 22.74999999966183
    vertex 42.15022309957863 10.06110277874926 22.750086177884338
  endloop
endfacet
facet normal 0.9238795325042013 7.12741725958059e-06 -0.3826834323158223
  outer loop
    vertex 41.60081222623415 0.06111246423902179 21.42350474777207
    vertex 42.15022309957863 10.06110277874926 22.750086177884338
    vertex 42.150264549998596 0.06110277920650189 22.74999999966183
  endloop
endfacet
facet normal 0.9238795325042013 7.12741725958059e-06 -0.3826834323158223
  outer loop
    vertex 42.15022309957863 10.06110277874926 22.750086177884338
    vertex 41.60081222623415 0.06111246423902179 21.42350474777207
    vertex 41.60077077581418 10.061112463781779 21.423590925994578
  endloop
endfacet
facet normal 0.9914448613655834 5.234432110351536e-06 -0.1305261921775847
  outer loop
    vertex 41.41340427082778 0.061124658902974464 19.999999999774467
    vertex 41.60077077581418 10.061112463781779 21.423590925994578
    vertex 41.60081222623415 0.06111246423902179 21.42350474777207
  endloop
endfacet
facet normal 0.9914448613655834 5.234432110351536e-06 -0.1305261921775847
  outer loop
    vertex 41.60077077581418 10.061112463781779 21.423590925994578
    vertex 41.41340427082778 0.061124658902974464 19.999999999774467
    vertex 41.41336282040782 10.061124658445731 20.000086177996973
  endloop
endfacet
facet normal 0.991444861365 2.9847290631098768e-06 0.1305261922528471
  outer loop
    vertex 41.60081222623415 0.06113853215216419 18.57649525179223
    vertex 41.41336282040782 10.061124658445731 20.000086177996973
    vertex 41.41340427082778 0.061124658902974464 19.999999999774467
  endloop
endfacet
facet normal 0.991444861365 2.9847290631098768e-06 0.1305261922528471
  outer loop
    vertex 41.41336282040782 10.061124658445731 20.000086177996973
    vertex 41.60081222623415 0.06113853215216419 18.57649525179223
    vertex 41.60077077581418 10.061138531694922 18.576581430014738
  endloop
endfacet
facet normal 0.9238795325024731 5.316216627150195e-07 0.38268343238599867
  outer loop
    vertex 42.150264549998596 0.06115313854758531 17.24999999994753
    vertex 41.60077077581418 10.061138531694922 18.576581430014738
    vertex 41.60081222623415 0.06113853215216419 18.57649525179223
  endloop
endfacet
facet normal 0.9238795325024731 5.316216627150195e-07 0.38268343238599867
  outer loop
    vertex 41.60077077581418 10.061138531694922 18.576581430014738
    vertex 42.150264549998596 0.06115313854758531 17.24999999994753
    vertex 42.15022309957863 10.061153138090344 17.250086178170037
  endloop
endfacet
facet normal 0.7933533402829953 -1.95771487544757e-06 0.6087614290163113
  outer loop
    vertex 43.02431697426946 0.06116748268752809 16.110912703516533
    vertex 42.15022309957863 10.061153138090344 17.250086178170037
    vertex 42.150264549998596 0.06115313854758531 17.24999999994753
  endloop
endfacet
facet normal 0.7933533402829953 -1.95771487544757e-06 0.6087614290163113
  outer loop
    vertex 42.15022309957863 10.061153138090344 17.250086178170037
    vertex 43.02431697426946 0.06116748268752809 16.110912703516533
    vertex 43.024275523849504 10.061167482230285 16.11099888173904
  endloop
endfacet
facet normal 0.6087614290015961 -4.313636380125161e-06 0.7933533402849751
  outer loop
    vertex 43.02431697426946 0.06116748268752809 16.110912703516533
    vertex 44.16336282035267 10.061180586585317 15.23694645754275
    vertex 43.024275523849504 10.061167482230285 16.11099888173904
  endloop
endfacet
facet normal 0.6087614290015961 -4.313636380125161e-06 0.7933533402849751
  outer loop
    vertex 44.16336282035267 10.061180586585317 15.23694645754275
    vertex 43.02431697426946 0.06116748268752809 16.110912703516533
    vertex 44.16340427077263 0.06118058704256023 15.236860279320243
  endloop
endfacet
facet normal 0.3826834323595701 -6.375590694118134e-06 0.9238795324915745
  outer loop
    vertex 44.16340427077263 0.06118058704256023 15.236860279320243
    vertex 45.4898580722622 10.0611915581153 14.687494133850223
    vertex 44.16336282035267 10.061180586585317 15.23694645754275
  endloop
endfacet
facet normal 0.3826834323595701 -6.375590694118134e-06 0.9238795324915745
  outer loop
    vertex 45.4898580722622 10.0611915581153 14.687494133850223
    vertex 44.16340427077263 0.06118058704256023 15.236860279320243
    vertex 45.489899522682165 0.06119155857254227 14.687407955627714
  endloop
endfacet
facet normal 0.1305261922165306 -8.003059038468534e-06 0.9914448613419732
  outer loop
    vertex 45.489899522682165 0.06119155857254227 14.687407955627714
    vertex 46.913362820297515 10.061199649128595 14.500086178508205
    vertex 45.4898580722622 10.0611915581153 14.687494133850223
  endloop
endfacet
facet normal 0.1305261922165306 -8.003059038468534e-06 0.9914448613419732
  outer loop
    vertex 46.913362820297515 10.061199649128595 14.500086178508205
    vertex 45.489899522682165 0.06119155857254227 14.687407955627714
    vertex 46.91340427071748 0.06119964958583724 14.500000000285699
  endloop
endfacet
facet normal -0.13052619222130624 -9.085132135027592e-06 0.9914448613320194
  outer loop
    vertex 46.91340427071748 0.06119964958583724 14.500000000285699
    vertex 48.33686756833283 10.061204308236018 14.687494133966965
    vertex 46.913362820297515 10.061199649128595 14.500086178508205
  endloop
endfacet
facet normal -0.13052619222130624 -9.085132135027592e-06 0.9914448613320194
  outer loop
    vertex 48.33686756833283 10.061204308236018 14.687494133966965
    vertex 46.91340427071748 0.06119964958583724 14.500000000285699
    vertex 48.33690901875279 0.061204308693260115 14.687407955744458
  endloop
endfacet
facet normal -0.3826834323639761 -9.548068490475357e-06 0.9238795324624096
  outer loop
    vertex 48.33690901875279 0.061204308693260115 14.687407955744458
    vertex 49.66336282024236 10.061205217927098 15.23694645776828
    vertex 48.33686756833283 10.061204308236018 14.687494133966965
  endloop
endfacet
facet normal -0.3826834323639761 -9.548068490475357e-06 0.9238795324624096
  outer loop
    vertex 49.66336282024236 10.061205217927098 15.23694645776828
    vertex 48.33690901875279 0.061204308693260115 14.687407955744458
    vertex 49.663404270662326 0.06120521838433957 15.236860279545773
  endloop
endfacet
facet normal -0.6087614297647461 -9.360319755506366e-06 0.7933533396558979
  outer loop
    vertex 49.663404270662326 0.06120521838433957 15.236860279545773
    vertex 49.913362820367944 10.061176935431401 15.428778204917553
    vertex 49.66336282024236 10.061205217927098 15.23694645776828
  endloop
endfacet
facet normal -0.6087614297647461 -9.360319755506366e-06 0.7933533396558979
  outer loop
    vertex 49.913362820367944 10.061176935431401 15.428778204917553
    vertex 49.663404270662326 0.06120521838433957 15.236860279545773
    vertex 49.9134042707879 0.06117693588864347 15.428692026695044
  endloop
endfacet
facet normal 0.9999999999969502 2.0725152099109586e-06 1.3432818687986881e-06
  outer loop
    vertex 49.91340427071748 10.061149290244758 5.009266748153425e-30
    vertex 49.9134042707879 0.06117693588864347 15.428692026695044
    vertex 49.91340427071748 0.061149290244753816 5.009266748153425e-30
  endloop
endfacet
facet normal 0.9999999999969502 2.0725152099109586e-06 1.3432818687986881e-06
  outer loop
    vertex 49.9134042707879 0.06117693588864347 15.428692026695044
    vertex 49.91340427071748 10.061149290244758 5.009266748153425e-30
    vertex 49.913362820367944 10.061176935431401 15.428778204917553
  endloop
endfacet
facet normal -0.0 -0.0 1.0
  outer loop
    vertex 49.91340427071748 0.061149290244753816 39.99999999999999
    vertex 32.41340427071747 10.061149290244753 39.99999999999999
    vertex 32.41340427071747 0.061149290244753816 39.99999999999999
  endloop
endfacet
facet normal -0.0 -0.0 1.0
  outer loop
    vertex 32.41340427071747 10.061149290244753 39.99999999999999
    vertex 49.91340427071748 0.061149290244753816 39.99999999999999
    vertex 49.91340427071748 10.061149290244758 39.99999999999999
  endloop
endfacet
facet normal -9.719926240792761e-33 1.7072789939393138e-31 -1.0
  outer loop
    vertex 49.91340427071748 10.061149290244758 5.009266748153425e-30
    vertex -0.08659572928254423 0.061149290244753816 5.009266748153425e-30
    vertex -0.08659572928254423 10.061149290244758 5.009266748153425e-30
  endloop
endfacet
facet normal -9.719926240792761e-33 1.7072789939393138e-31 -1.0
  outer loop
    vertex -0.08659572928254423 0.061149290244753816 5.009266748153425e-30
    vertex 49.91340427071748 10.061149290244758 5.009266748153425e-30
    vertex 32.01096894330716 0.061149290244753816 2.6853897573319926e-30
  endloop
endfacet
facet normal -9.719926240792761e-33 1.7072789939393138e-31 -1.0
  outer loop
    vertex 32.01096894330716 0.061149290244753816 2.6853897573319926e-30
    vertex 49.91340427071748 10.061149290244758 5.009266748153425e-30
    vertex 32.413199004062086 0.06271262424614339 3.6151276651056032e-31
  endloop
endfacet
facet normal -9.719926240792761e-33 1.7072789939393138e-31 -1.0
  outer loop
    vertex 32.413199004062086 0.06271262424614339 3.6151276651056032e-31
    vertex 49.91340427071748 10.061149290244758 5.009266748153425e-30
    vertex 49.91340427071748 0.061149290244753816 5.009266748153425e-30
  endloop
endfacet
endsolid Utensil Holder_bigItems
